<?xml version="1.0" encoding="UTF-8" standalone="no"?>
<svg
   id="Capa_1"
   data-name="Capa 1"
   viewBox="-0.5 -0.5 33.000001 46.999998"
   version="1.1"
   sodipodi:docname="Mesa de trabajo 8_2.svg"
   width="33"
   height="47"
   inkscape:version="1.4 (86a8ad7, 2024-10-11)"
   xmlns:inkscape="http://www.inkscape.org/namespaces/inkscape"
   xmlns:sodipodi="http://sodipodi.sourceforge.net/DTD/sodipodi-0.dtd"
   xmlns="http://www.w3.org/2000/svg"
   xmlns:svg="http://www.w3.org/2000/svg">
  <sodipodi:namedview
     id="namedview1"
     pagecolor="#505050"
     bordercolor="#eeeeee"
     borderopacity="1"
     inkscape:showpageshadow="0"
     inkscape:pageopacity="0"
     inkscape:pagecheckerboard="0"
     inkscape:deskcolor="#505050"
     inkscape:zoom="10.302566"
     inkscape:cx="25.770279"
     inkscape:cy="24.120205"
     inkscape:window-width="1920"
     inkscape:window-height="1009"
     inkscape:window-x="-8"
     inkscape:window-y="-8"
     inkscape:window-maximized="1"
     inkscape:current-layer="Capa_1" />
  <defs
     id="defs1">
    <style
       id="style1">
      .cls-1 {
        fill: #fff;
        stroke-width: 0px;
      }
    </style>
  </defs>
  <path
     class="cls-1"
     d="m 9.88717,11.611213 c -0.085,-0.17524 0.01451,-0.591694 0.02902,-0.78549 C 9.939,10.535031 9.97631,10.244339 10.02607,9.9557078 10.127657,9.3825689 10.285221,8.8176769 10.492542,8.2734012 10.929989,7.1353705 11.589268,6.0921756 12.383306,5.1664948 14.048093,3.2202973 16.293377,1.7998204 19.121231,0.90506428 21.005777,0.3010009 23.864729,0 27.696016,0 28.24127,0 29.67593,0.01030828 31.999996,0.03092475 30.467895,3.4079074 28.842501,8.1105309 27.123813,14.136734 l -4.687524,16.295281 c -0.692451,2.428624 -1.764299,4.731487 -2.813343,7.036411 -0.777451,1.713231 -1.822348,3.296579 -3.174079,4.669638 -0.667574,0.678282 -1.345512,1.35038 -2.108452,1.917334 -1.148558,0.853523 -2.48163,1.463772 -3.88519,1.760649 C 7.7538394,46.385063 3.7380366,45.653176 1.7871483,43.352375 1.0262812,42.455558 0.38980654,40.983539 0.17419297,39.903235 -0.21142358,37.971469 0.09333791,35.742824 0.59920051,33.848168 2.1872774,27.904432 7.210659,23.100787 12.870516,20.622685 c 5.178872,-2.265754 11.881551,-3.463573 18.065929,-3.405847 -0.516229,1.993617 -1.009652,3.783129 -1.559052,4.026403 -2.214185,0.983407 -7.874042,1.379244 -10.266523,1.768896 -3.692382,0.602001 -8.214048,1.96269 -10.9755605,5.131446 -1.5777108,1.810129 -2.9066368,3.834669 -3.6820163,6.102485 -1.2148996,3.554284 0.6468407,7.426062 4.6502042,7.628104 2.1499166,0.109268 3.8997036,-1.385429 5.0254556,-3.007947 1.020017,-1.469956 1.629541,-3.214112 2.203819,-4.906728 0.605377,-1.787449 1.190021,-3.581085 1.764299,-5.376782 1.762226,-5.467496 3.47055,-11.14528 5.129115,-17.03129 L 25.788671,2.6409736 24.866094,2.4698566 C 23.624243,2.2410135 22.351294,2.1956572 21.105296,2.3873906 19.411484,2.6492201 18.312685,3.2635918 16.768145,4.393376 14.587131,5.9890931 13.446866,7.5559469 13.446866,9.3269042"
     id="path1" />
  <circle
     class="cls-1"
     cx="24.635992"
     cy="43.036594"
     r="2.9823024"
     id="circle1" />
</svg>
