<?xml version="1.0" encoding="UTF-8" standalone="no"?>
<svg
   id="Capa_1"
   data-name="Capa 1"
   viewBox="-0.5 -0.5 33 47"
   version="1.1"
   sodipodi:docname="Mesa de trabajo 8_1.svg"
   width="33"
   height="47"
   inkscape:version="1.4 (86a8ad7, 2024-10-11)"
   inkscape:export-filename="Mesa de trabajo 8_1.png"
   inkscape:export-xdpi="96"
   inkscape:export-ydpi="96"
   xmlns:inkscape="http://www.inkscape.org/namespaces/inkscape"
   xmlns:sodipodi="http://sodipodi.sourceforge.net/DTD/sodipodi-0.dtd"
   xmlns="http://www.w3.org/2000/svg"
   xmlns:svg="http://www.w3.org/2000/svg">
  <sodipodi:namedview
     id="namedview1"
     pagecolor="#505050"
     bordercolor="#eeeeee"
     borderopacity="1"
     inkscape:showpageshadow="0"
     inkscape:pageopacity="0"
     inkscape:pagecheckerboard="0"
     inkscape:deskcolor="#505050"
     inkscape:zoom="10.302566"
     inkscape:cx="3.154554"
     inkscape:cy="19.849424"
     inkscape:window-width="1920"
     inkscape:window-height="1009"
     inkscape:window-x="-8"
     inkscape:window-y="-8"
     inkscape:window-maximized="1"
     inkscape:current-layer="Capa_1" />
  <defs
     id="defs1">
    <style
       id="style1">
      .cls-1 {
        fill: #45c0f0;
      }

      .cls-1, .cls-2 {
        stroke-width: 0px;
      }

      .cls-2 {
        fill: #17243d;
      }
    </style>
  </defs>
  <path
     class="cls-2"
     d="m 9.8281888,11.606649 c -0.084494,-0.175171 0.014426,-0.591461 0.028852,-0.78518 0.022669,-0.290578 0.059764,-0.581156 0.1092245,-0.8696739 C 10.067246,9.3788817 10.22387,8.8142114 10.429954,8.2701497 10.864791,7.1325662 11.520139,6.0897812 12.30944,5.1644642 13.964295,3.2190315 16.196184,1.7991129 19.007169,0.90470844 20.880472,0.3008826 23.72237,0 27.530801,0 c 0.542002,0 1.968103,0.0103042 4.278303,0.0309126 -1.52296,3.3756553 -3.138658,8.0764308 -4.847095,14.1002644 l -4.659558,16.288879 c -0.68832,2.427669 -1.753773,4.729626 -2.796559,7.033646 -0.772815,1.712557 -1.811478,3.295282 -3.155146,4.667802 -0.66359,0.678015 -1.337485,1.34985 -2.095873,1.916581 -1.141705,0.853187 -2.466826,1.463196 -3.862014,1.759957 C 7.7075847,46.366833 3.7157373,45.635235 1.7764872,43.335339 1.020159,42.438873 0.38748115,40.967433 0.17315383,39.887554 -0.21016237,37.956546 0.09278108,35.728779 0.59562597,33.834867 2.1742292,27.893466 7.1676447,23.09171 12.793737,20.61458 c 5.147977,-2.264863 11.810672,-3.462211 17.958157,-3.404508 -0.513149,1.992833 -1.003629,3.781642 -1.549752,4.024821 -2.200977,0.98302 -7.827069,1.378702 -10.205278,1.768201 -3.670355,0.601764 -8.165046,1.961919 -10.9100848,5.12943 -1.568299,1.809416 -2.8892981,3.833161 -3.6600522,6.100085 -1.2076521,3.552888 0.642982,7.423145 4.6224644,7.625107 2.1370906,0.109225 3.8764396,-1.384884 4.9954756,-3.006765 1.013934,-1.469379 1.61982,-3.21285 2.190672,-4.904798 0.601766,-1.786749 1.182923,-3.579679 1.753776,-5.37467 1.751713,-5.465348 3.449844,-11.1409 5.098516,-17.024598 L 25.634829,2.6399355 24.717755,2.4688858 c -1.234443,-0.2287532 -2.499798,-0.2740916 -3.738363,-0.082434 -1.683705,0.2617267 -2.77595,0.8758569 -4.311276,2.0051971 -2.168003,1.59509 -3.301465,3.1613282 -3.301465,4.9315898"
     id="path1" />
  <circle
     class="cls-1"
     cx="24.734241"
     cy="42.840736"
     id="circle1"
     r="2.9346359" />
</svg>
